#!OML:ASF E:\emotionWalksFemale\Project 1\Capture day 1\Session 1\Female1.ASF
:FULLY-SPECIFIED
:DEGREES
86
root 7.63396 15.0847 39.7992 -175.281 -0.495507 -180.776
lowerback 9.15981 0.102491 -1.32153
upperback -3.27086 -0.0308462 0.202027
thorax -8.61991 0.0562092 0.964641
lowerneck -3.09377 -2.08205 -4.73894
upperneck -1.51453 -2.7121 6.49217
head 0.224146 -1.35691 2.85651
rclavicle 1.31074e-015 1.78906e-015
rhumerus -40.0764 5.80127 -89.6222
rradius 32.4365
rwrist 17.5603
rhand -3.21532 -53.4067
rfingers 7.12502
rthumb 22.5073 -82.1149
lclavicle 1.31074e-015 1.78906e-015
lhumerus -38.7856 -6.09364 91.2825
lradius 36.288
lwrist -13.7909
lhand -5.58066 -35.3267
lfingers 7.12502
lthumb 20.2354 -6.36071
rfemur -31.0059 22.0223 14.6201
rtibia 24.2103
rfoot -20.0279 -33.1203
rtoes 8.67144
lfemur 4.58842 -18.1387 -31.8388
ltibia 13.6491
lfoot -24.8407 20.3479
ltoes -23.6205
87
root 7.63971 15.0779 39.7183 -175.432 -0.365389 -180.699
lowerback 9.12462 0.111016 -1.25607
upperback -3.14509 -0.00396103 0.238465
thorax -8.46368 0.0663655 0.961501
lowerneck -3.09976 -2.0494 -4.61359
upperneck -1.64508 -2.66927 6.36793
head 0.177099 -1.33812 2.79235
rclavicle -4.25523e-016 -6.95746e-016
rhumerus -39.9527 5.51142 -89.3873
rradius 32.5055
rwrist 17.4768
rhand -2.13927 -53.852
rfingers 7.12502
rthumb 23.5398 -82.4315
lclavicle -4.25523e-016 -6.95746e-016
lhumerus -38.6714 -6.17292 91.539
lradius 36.2296
lwrist -14.4419
lhand -8.58411 -37.1455
lfingers 7.12502
lthumb 17.3467 -7.89963
rfemur -30.547 21.6974 15.1301
rtibia 24.3705
rfoot -19.6297 -33.0698
rtoes 8.58611
lfemur 5.17051 -17.8118 -31.8394
ltibia 13.5153
lfoot -24.8209 20.1843
ltoes -23.451
88
root 7.65574 15.0788 39.6528 -175.205 -0.845889 -180.634
lowerback 8.9128 -0.0728281 -1.31084
upperback -3.14901 -0.249389 0.312013
thorax -8.33756 -0.0493611 1.10904
lowerneck -3.13429 -2.00171 -4.41564
upperneck -1.63622 -2.61027 6.20557
head 0.176541 -1.30909 2.70127
rclavicle -2.38231e-015 -1.98785e-015
rhumerus -39.7819 5.32209 -89.1981
rradius 32.5211
rwrist 17.287
rhand -1.52004 -54.4353
rfingers 7.12502
rthumb 24.1337 -82.9373
lclavicle -2.38231e-015 -1.98785e-015
lhumerus -38.3714 -6.06428 91.6688
lradius 36.2113
lwrist -14.246
lhand -9.37955 -37.6819
lfingers 7.12502
lthumb 16.5811 -8.3703
rfemur -30.5237 21.6541 15.243
rtibia 24.5368
rfoot -21.1125 -33.5155
rtoes 11.7688
lfemur 5.28964 -17.7942 -31.5329
ltibia 13.2655
lfoot -24.4526 19.6776
ltoes -23.6522
89
root 7.66698 15.0833 39.5761 -174.667 -0.52269 -180.613
lowerback 8.46518 0.0358728 -1.46555
upperback -3.38963 -0.12507 0.334472
thorax -8.3405 0.0174566 1.1996
lowerneck -3.01321 -1.94767 -4.49233
upperneck -1.67075 -2.54303 6.46761
head 0.146347 -1.2787 2.80634
rclavicle 2.32951e-016 7.95139e-016
rhumerus -39.9963 4.98158 -89.0372
rradius 32.6982
rwrist 17.2456
rhand -2.1616 -54.1499
rfingers 7.12502
rthumb 23.5184 -82.7322
lclavicle 2.32951e-016 7.95139e-016
lhumerus -38.4984 -6.01724 91.8244
lradius 36.6798
lwrist -13.0935
lhand -7.51827 -37.0518
lfingers 7.12502
lthumb 18.3723 -7.8994
rfemur -30.9218 21.3665 15.3647
rtibia 24.6337
rfoot -23.7874 -32.3153
rtoes 20.1872
lfemur 5.15164 -17.8611 -31.4303
ltibia 13.0156
lfoot -24.5881 19.6296
ltoes -23.532
90
root 7.68142 15.093 39.5054 -174.742 -0.544007 -180.532
lowerback 8.78399 0.0167138 -1.58908
upperback -3.4511 -0.162039 0.448322
thorax -8.59199 0.0125506 1.39756
lowerneck -2.87314 -1.89078 -4.61896
upperneck -1.79516 -2.46472 6.58277
head 0.0817598 -1.24267 2.8723
rclavicle 5.62188e-016 -1.68967e-015
rhumerus -40.0151 4.76303 -88.8446
rradius 32.7451
rwrist 16.9866
rhand -2.60827 -53.4133
rfingers 7.12502
rthumb 23.0899 -82.0498
lclavicle 5.62188e-016 -1.68967e-015
lhumerus -38.8052 -6.34217 92.2791
lradius 37.1092
lwrist -12.9369
lhand -8.06741 -36.8932
lfingers 7.12502
lthumb 17.844 -7.6919
rfemur -30.6169 21.2337 15.694
rtibia 24.6869
rfoot -23.4957 -31.9139
rtoes 22.7948
lfemur 5.71036 -17.8145 -31.3544
ltibia 12.7253
lfoot -24.8018 19.0755
ltoes -22.5393
91
root 7.6954 15.1076 39.4328 -174.631 -0.471941 -180.171
lowerback 8.81176 0.0519384 -1.35958
upperback -3.48532 -0.0776017 0.585298
thorax -8.64803 0.0453127 1.40047
lowerneck -2.87893 -1.89834 -4.71563
upperneck -1.92321 -2.47187 6.70905
head 0.0460098 -1.24874 2.9339
rclavicle -1.70209e-015 1.98785e-015
rhumerus -39.8739 4.40174 -88.507
rradius 32.7116
rwrist 16.9918
rhand -2.85538 -52.5516
rfingers 7.12502
rthumb 22.8528 -81.2177
lclavicle -1.70209e-015 1.98785e-015
lhumerus -38.8509 -6.80988 92.6165
lradius 37.4282
lwrist -12.3175
lhand -8.02848 -36.7266
lfingers 7.12502
lthumb 17.8814 -7.52864
rfemur -30.6253 21.3042 16.1903
rtibia 24.7535
rfoot -22.0428 -32.3899
rtoes 19.4685
lfemur 6.11421 -17.7415 -30.9133
ltibia 12.2662
lfoot -24.4358 18.8931
ltoes -22.166
92
root 7.70883 15.119 39.3558 -174.35 -0.403 -180.173
lowerback 8.62639 0.116766 -1.44414
upperback -3.57098 -0.00485768 0.560468
thorax -8.63536 0.0833661 1.4099
lowerneck -3.09457 -1.92865 -4.60227
upperneck -1.76983 -2.51922 6.799
head 0.13472 -1.27013 2.93935
rclavicle 7.57867e-016 -4.77083e-015
rhumerus -39.827 3.85836 -88.1693
rradius 32.7407
rwrist 17.4894
rhand -2.62646 -52.5623
rfingers 7.12502
rthumb 23.0724 -81.201
lclavicle 7.57867e-016 -4.77083e-015
lhumerus -38.779 -7.08701 92.8316
lradius 37.4166
lwrist -12.2378
lhand -8.87312 -36.4007
lfingers 7.12502
lthumb 17.0686 -7.13055
rfemur -30.7707 21.1925 16.242
rtibia 24.7769
rfoot -20.3097 -32.6555
rtoes 15.8352
lfemur 6.31525 -18.0683 -30.9303
ltibia 11.9317
lfoot -23.718 19.2897
ltoes -23.4729
93
root 7.72217 15.1234 39.2674 -174.36 -0.455052 -180.134
lowerback 8.6241 0.119874 -1.47336
upperback -3.60537 -0.00626053 0.551116
thorax -8.6714 0.0841012 1.41688
lowerneck -3.18472 -1.94186 -4.32362
upperneck -1.56028 -2.54992 6.69405
head 0.212601 -1.28305 2.84894
rclavicle 7.85821e-016 -3.67752e-015
rhumerus -39.8437 3.38991 -87.9548
rradius 32.7035
rwrist 17.9262
rhand -1.99672 -53.0105
rfingers 7.12502
rthumb 23.6765 -81.5724
lclavicle 7.85821e-016 -3.67752e-015
lhumerus -38.9124 -7.38194 93.1103
lradius 37.4915
lwrist -12.2038
lhand -9.54922 -36.1125
lfingers 7.12502
lthumb 16.4177 -6.78726
rfemur -30.4466 21.3727 16.3963
rtibia 24.7135
rfoot -19.258 -32.8433
rtoes 14.3002
lfemur 6.80543 -18.4791 -31.0244
ltibia 11.8558
lfoot -23.1819 19.6945
ltoes -25.9674
94
root 7.7388 15.1317 39.1904 -174.069 -0.394665 -180.016
lowerback 8.52538 0.135314 -1.48821
upperback -3.73525 0.00995588 0.577214
thorax -8.75543 0.0929306 1.45091
lowerneck -3.348 -1.9413 -4.17989
upperneck -1.3842 -2.55816 6.69705
head 0.294912 -1.28406 2.8206
rclavicle -1.88845e-015 -5.06901e-015
rhumerus -39.7544 3.25739 -87.9754
rradius 32.7832
rwrist 17.0676
rhand -1.78333 -53.5606
rfingers 7.12502
rthumb 23.8812 -82.0958
lclavicle -1.88845e-015 -5.06901e-015
lhumerus -39.0114 -7.79932 93.322
lradius 37.7246
lwrist -11.5079
lhand -8.96112 -36.0436
lfingers 7.12502
lthumb 16.9839 -6.7661
rfemur -30.5398 21.2571 16.6182
rtibia 24.6951
rfoot -18.7429 -32.4878
rtoes 13.9738
lfemur 6.85571 -18.4978 -30.8283
ltibia 11.768
lfoot -22.7026 19.7893
ltoes -27.7502
95
root 7.75916 15.1436 39.1113 -173.944 -0.785197 -179.877
lowerback 8.49073 -0.0546447 -1.48951
upperback -3.789 -0.237214 0.706742
thorax -8.78406 -0.0234983 1.62892
lowerneck -3.35014 -1.8658 -4.32221
upperneck -1.32982 -2.4557 6.84066
head 0.311079 -1.23152 2.89754
rclavicle -1.37907e-015 4.17448e-015
rhumerus -39.7359 3.79474 -88.1967
rradius 33.1924
rwrist 15.0544
rhand -1.19536 -55.0818
rfingers 7.12502
rthumb 24.4449 -83.5421
lclavicle -1.37907e-015 4.17448e-015
lhumerus -39.0113 -7.60858 93.3612
lradius 37.7764
lwrist -11.0537
lhand -8.53063 -36.4908
lfingers 7.12502
lthumb 17.3982 -7.24947
rfemur -30.284 20.9274 16.9816
rtibia 24.651
rfoot -18.6505 -32.4529
rtoes 14.3007
lfemur 6.96257 -18.4657 -30.4976
ltibia 11.8823
lfoot -22.5636 19.219
ltoes -27.4023
96
root 7.77076 15.1471 39.0075 -174.249 -0.921372 -179.564
lowerback 8.4124 -0.160181 -1.2083
upperback -3.63574 -0.324925 0.902865
thorax -8.5681 -0.0777805 1.69024
lowerneck -3.08945 -1.95433 -4.62389
upperneck -1.52179 -2.33776 6.96123
head 0.206403 -1.07668 3.00059
rclavicle -9.59757e-016 1.17283e-014
rhumerus -39.8016 4.37616 -88.2086
rradius 33.5252
rwrist 13.8628
rhand -0.841699 -56.1095
rfingers 7.12502
rthumb 24.7839 -84.5237
lclavicle -9.59757e-016 1.17283e-014
lhumerus -39.1368 -7.35903 93.6123
lradius 37.7994
lwrist -11.1573
lhand -9.31198 -36.6355
lfingers 7.12502
lthumb 16.6461 -7.32929
rfemur -29.4437 20.7143 17.763
rtibia 24.618
rfoot -18.0588 -32.3435
rtoes 13.9405
lfemur 7.63144 -18.5129 -30.3106
ltibia 12.1408
lfoot -22.754 18.9539
ltoes -26.3567
97
root 7.78792 15.1629 38.9295 -173.853 -0.983825 -179.467
lowerback 8.16938 -0.198965 -1.15968
upperback -3.79962 -0.375803 0.927953
thorax -8.60172 -0.106851 1.69697
lowerneck -3.07066 -1.97835 -4.66505
upperneck -1.54975 -2.36442 7.08565
head 0.19859 -1.08839 3.05066
rclavicle 2.05307e-015 -1.09332e-015
rhumerus -39.7662 4.25261 -88.0542
rradius 33.4389
rwrist 14.2629
rhand -0.891341 -56.0918
rfingers 7.12502
rthumb 24.7364 -84.5125
lclavicle 2.05307e-015 -1.09332e-015
lhumerus -39.3898 -7.58915 93.8617
lradius 37.9323
lwrist -11.3912
lhand -10.4369 -36.5404
lfingers 7.12502
lthumb 15.5629 -7.14658
rfemur -29.6289 20.2553 18.0362
rtibia 24.7233
rfoot -17.7933 -31.71
rtoes 13.9582
lfemur 7.44156 -18.4594 -30.0179
ltibia 12.1903
lfoot -22.1466 18.9165
ltoes -28.0583
